<svg width="25" height="23" viewBox="0 0 25 23" fill="none" xmlns="http://www.w3.org/2000/svg">
<path d="M15.2872 0.50393C16.0632 0.50393 16.7852 0.90393 17.1962 1.56293L18.7172 3.99993H21.0862C21.9481 3.99993 22.7748 4.34234 23.3843 4.95183C23.9938 5.56133 24.3362 6.38798 24.3362 7.24993V19.7499C24.3362 20.6119 23.9938 21.4385 23.3843 22.048C22.7748 22.6575 21.9481 22.9999 21.0862 22.9999H3.58618C2.72423 22.9999 1.89758 22.6575 1.28808 22.048C0.678591 21.4385 0.336182 20.6119 0.336182 19.7499V7.24993C0.336182 6.38798 0.678591 5.56133 1.28808 4.95183C1.89758 4.34234 2.72423 3.99993 3.58618 3.99993H6.15518L7.53618 1.62293C7.73399 1.28234 8.01774 0.99964 8.35906 0.803095C8.70038 0.60655 9.08732 0.503046 9.48118 0.50293H15.2862L15.2872 0.50393ZM15.2872 2.00393H9.48218C9.3701 2.004 9.25946 2.02919 9.1584 2.07764C9.05734 2.1261 8.96842 2.19659 8.89818 2.28393L8.83418 2.37693L7.23418 5.12693C7.16836 5.24053 7.07386 5.33487 6.96015 5.4005C6.84643 5.46614 6.71748 5.50077 6.58618 5.50093H3.58618C3.12223 5.50093 2.67726 5.68517 2.3491 6.01314C2.02094 6.34111 1.83645 6.78597 1.83618 7.24993V19.7499C1.83618 20.7159 2.62018 21.4999 3.58618 21.4999H21.0862C21.5503 21.4999 21.9954 21.3156 22.3236 20.9874C22.6518 20.6592 22.8362 20.2141 22.8362 19.7499V7.24993C22.8362 6.7858 22.6518 6.34068 22.3236 6.01249C21.9954 5.6843 21.5503 5.49993 21.0862 5.49993H18.3012C18.1739 5.49988 18.0488 5.46745 17.9375 5.40569C17.8263 5.34394 17.7325 5.25489 17.6652 5.14693L15.9232 2.35593C15.8558 2.24797 15.7621 2.15892 15.6508 2.09717C15.5396 2.03541 15.4144 2.00298 15.2872 2.00293V2.00393ZM12.3362 7.50193C13.7949 7.50193 15.1938 8.08139 16.2253 9.11284C17.2567 10.1443 17.8362 11.5432 17.8362 13.0019C17.8362 14.4606 17.2567 15.8596 16.2253 16.891C15.1938 17.9225 13.7949 18.5019 12.3362 18.5019C10.8775 18.5019 9.47854 17.9225 8.44709 16.891C7.41564 15.8596 6.83618 14.4606 6.83618 13.0019C6.83618 11.5432 7.41564 10.1443 8.44709 9.11284C9.47854 8.08139 10.8775 7.50193 12.3362 7.50193ZM12.3362 9.00193C11.2753 9.00193 10.2579 9.42336 9.50775 10.1735C8.75761 10.9236 8.33618 11.9411 8.33618 13.0019C8.33618 14.0628 8.75761 15.0802 9.50775 15.8304C10.2579 16.5805 11.2753 17.0019 12.3362 17.0019C13.397 17.0019 14.4145 16.5805 15.1646 15.8304C15.9148 15.0802 16.3362 14.0628 16.3362 13.0019C16.3362 11.9411 15.9148 10.9236 15.1646 10.1735C14.4145 9.42336 13.397 9.00193 12.3362 9.00193Z" fill="black"/>
</svg>
