<svg width="25" height="24" viewBox="0 0 25 24" fill="none" xmlns="http://www.w3.org/2000/svg">
<path d="M2.33618 21H21.6219" stroke="#414141" stroke-width="1.7" stroke-linecap="round"/>
<path d="M19.0503 21V9.5C19.0503 5.91015 16.1402 3 12.5503 3H11.4075C7.81762 3 4.90747 5.91015 4.90747 9.5V21" stroke="#414141" stroke-width="1.7"/>
<path fill-rule="evenodd" clip-rule="evenodd" d="M14.3192 7.75339C14.3466 7.65103 14.3396 7.54246 14.2992 7.44448C14.2588 7.3465 14.1872 7.26457 14.0955 7.21137C14.0039 7.15816 13.8972 7.13665 13.7921 7.15015C13.687 7.16366 13.5892 7.21142 13.514 7.28607L8.75651 12.0011C8.69624 12.0608 8.6528 12.1354 8.63057 12.2172C8.60833 12.2991 8.60809 12.3854 8.62987 12.4674C8.65165 12.5494 8.69468 12.6242 8.75461 12.6842C8.81454 12.7443 8.88925 12.7874 8.9712 12.8094L10.8341 13.3085L9.96054 16.5685C9.93306 16.6709 9.94007 16.7794 9.9805 16.8774C10.0209 16.9754 10.0925 17.0573 10.1842 17.1105C10.2758 17.1637 10.3825 17.1853 10.4876 17.1718C10.5927 17.1582 10.6905 17.1105 10.7657 17.0358L15.5232 12.3208C15.5835 12.2611 15.6269 12.1865 15.6491 12.1047C15.6714 12.0228 15.6716 11.9365 15.6498 11.8545C15.628 11.7725 15.585 11.6977 15.5251 11.6377C15.4652 11.5776 15.3904 11.5345 15.3085 11.5125L13.4456 11.0134L14.3192 7.75339Z" fill="#414141"/>
</svg>
