<svg width="21" height="20" viewBox="0 0 21 20" fill="none" xmlns="http://www.w3.org/2000/svg">
<path fill-rule="evenodd" clip-rule="evenodd" d="M8.66943 9.99999C8.66943 9.07952 9.41563 8.33333 10.3361 8.33333C11.2566 8.33333 12.0028 9.07952 12.0028 9.99999C12.0028 10.9205 11.2566 11.6667 10.3361 11.6667C9.41563 11.6667 8.66943 10.9205 8.66943 9.99999Z" fill="#414141"/>
<path fill-rule="evenodd" clip-rule="evenodd" d="M8.66943 4.16667C8.66943 3.24619 9.41563 2.5 10.3361 2.5C11.2566 2.5 12.0028 3.24619 12.0028 4.16667C12.0028 5.08714 11.2566 5.83333 10.3361 5.83333C9.41563 5.83333 8.66943 5.08714 8.66943 4.16667Z" fill="#414141"/>
<path fill-rule="evenodd" clip-rule="evenodd" d="M8.66943 15.8333C8.66943 14.9129 9.41563 14.1667 10.3361 14.1667C11.2566 14.1667 12.0028 14.9129 12.0028 15.8333C12.0028 16.7538 11.2566 17.5 10.3361 17.5C9.41563 17.5 8.66943 16.7538 8.66943 15.8333Z" fill="#414141"/>
</svg>
