<svg width="91" height="90" viewBox="0 0 91 90" fill="none" xmlns="http://www.w3.org/2000/svg">
<rect x="1.08618" y="0.75" width="88.5" height="88.5" stroke="#BFBFBF" stroke-width="1.5" stroke-dasharray="4 4"/>
<path d="M48.2872 25.5039C49.0632 25.5039 49.7852 25.9039 50.1962 26.5629L51.7172 28.9999H54.0862C54.9481 28.9999 55.7748 29.3423 56.3843 29.9518C56.9938 30.5613 57.3362 31.388 57.3362 32.2499V44.7499C57.3362 45.6119 56.9938 46.4385 56.3843 47.048C55.7748 47.6575 54.9481 47.9999 54.0862 47.9999H36.5862C35.7242 47.9999 34.8976 47.6575 34.2881 47.048C33.6786 46.4385 33.3362 45.6119 33.3362 44.7499V32.2499C33.3362 31.388 33.6786 30.5613 34.2881 29.9518C34.8976 29.3423 35.7242 28.9999 36.5862 28.9999H39.1552L40.5362 26.6229C40.734 26.2823 41.0177 25.9996 41.3591 25.8031C41.7004 25.6065 42.0873 25.503 42.4812 25.5029H48.2862L48.2872 25.5039ZM48.2872 27.0039H42.4822C42.3701 27.004 42.2595 27.0292 42.1584 27.0776C42.0573 27.1261 41.9684 27.1966 41.8982 27.2839L41.8342 27.3769L40.2342 30.1269C40.1684 30.2405 40.0739 30.3349 39.9601 30.4005C39.8464 30.4661 39.7175 30.5008 39.5862 30.5009H36.5862C36.1222 30.5009 35.6773 30.6852 35.3491 31.0131C35.0209 31.3411 34.8364 31.786 34.8362 32.2499V44.7499C34.8362 45.7159 35.6202 46.4999 36.5862 46.4999H54.0862C54.5503 46.4999 54.9954 46.3156 55.3236 45.9874C55.6518 45.6592 55.8362 45.2141 55.8362 44.7499V32.2499C55.8362 31.7858 55.6518 31.3407 55.3236 31.0125C54.9954 30.6843 54.5503 30.4999 54.0862 30.4999H51.3012C51.1739 30.4999 51.0488 30.4674 50.9375 30.4057C50.8263 30.3439 50.7325 30.2549 50.6652 30.1469L48.9232 27.3559C48.8558 27.248 48.7621 27.1589 48.6508 27.0972C48.5396 27.0354 48.4144 27.003 48.2872 27.0029V27.0039ZM45.3362 32.5019C46.7949 32.5019 48.1938 33.0814 49.2253 34.1128C50.2567 35.1443 50.8362 36.5432 50.8362 38.0019C50.8362 39.4606 50.2567 40.8596 49.2253 41.891C48.1938 42.9225 46.7949 43.5019 45.3362 43.5019C43.8775 43.5019 42.4785 42.9225 41.4471 41.891C40.4156 40.8596 39.8362 39.4606 39.8362 38.0019C39.8362 36.5432 40.4156 35.1443 41.4471 34.1128C42.4785 33.0814 43.8775 32.5019 45.3362 32.5019ZM45.3362 34.0019C44.2753 34.0019 43.2579 34.4234 42.5078 35.1735C41.7576 35.9236 41.3362 36.9411 41.3362 38.0019C41.3362 39.0628 41.7576 40.0802 42.5078 40.8304C43.2579 41.5805 44.2753 42.0019 45.3362 42.0019C46.397 42.0019 47.4145 41.5805 48.1646 40.8304C48.9148 40.0802 49.3362 39.0628 49.3362 38.0019C49.3362 36.9411 48.9148 35.9236 48.1646 35.1735C47.4145 34.4234 46.397 34.0019 45.3362 34.0019Z" fill="black"/>
<path d="M38.6272 59.2012H39.4006C39.7795 59.2012 40.092 59.1387 40.3381 59.0137C40.5881 58.8848 40.7737 58.7109 40.8948 58.4922C41.0198 58.2695 41.0823 58.0195 41.0823 57.7422C41.0823 57.4141 41.0276 57.1387 40.9182 56.916C40.8088 56.6934 40.6448 56.5254 40.426 56.4121C40.2073 56.2988 39.9299 56.2422 39.594 56.2422C39.2893 56.2422 39.0198 56.3027 38.7854 56.4238C38.5549 56.541 38.3733 56.709 38.2405 56.9277C38.1116 57.1465 38.0471 57.4043 38.0471 57.7012H36.9631C36.9631 57.2676 37.0725 56.873 37.2913 56.5176C37.51 56.1621 37.8167 55.8789 38.2112 55.668C38.6096 55.457 39.0706 55.3516 39.594 55.3516C40.1096 55.3516 40.5608 55.4434 40.9475 55.627C41.3342 55.8066 41.635 56.0762 41.8499 56.4355C42.0647 56.791 42.1721 57.2344 42.1721 57.7656C42.1721 57.9805 42.1213 58.2109 42.0198 58.457C41.9221 58.6992 41.7678 58.9258 41.5569 59.1367C41.3499 59.3477 41.0803 59.5215 40.7483 59.6582C40.4163 59.791 40.0178 59.8574 39.553 59.8574H38.6272V59.2012ZM38.6272 60.0918V59.4414H39.553C40.0959 59.4414 40.5452 59.5059 40.9006 59.6348C41.2561 59.7637 41.5354 59.9355 41.7385 60.1504C41.9456 60.3652 42.0901 60.6016 42.1721 60.8594C42.2581 61.1133 42.301 61.3672 42.301 61.6211C42.301 62.0195 42.2327 62.373 42.0959 62.6816C41.9631 62.9902 41.7737 63.252 41.5276 63.4668C41.2854 63.6816 41.0002 63.8438 40.6721 63.9531C40.344 64.0625 39.9866 64.1172 39.5999 64.1172C39.2288 64.1172 38.8792 64.0645 38.551 63.959C38.2268 63.8535 37.9397 63.7012 37.6897 63.502C37.4397 63.2988 37.2444 63.0508 37.1038 62.7578C36.9631 62.4609 36.8928 62.123 36.8928 61.7441H37.9768C37.9768 62.041 38.0413 62.3008 38.1702 62.5234C38.303 62.7461 38.4905 62.9199 38.7327 63.0449C38.9788 63.166 39.2678 63.2266 39.5999 63.2266C39.9319 63.2266 40.217 63.1699 40.4553 63.0566C40.6975 62.9395 40.8831 62.7637 41.012 62.5293C41.1448 62.2949 41.2112 62 41.2112 61.6445C41.2112 61.2891 41.137 60.998 40.9885 60.7715C40.8401 60.541 40.6292 60.3711 40.3557 60.2617C40.0862 60.1484 39.7678 60.0918 39.4006 60.0918H38.6272ZM47.6858 55.4688L44.1292 64.7324H43.1975L46.76 55.4688H47.6858ZM50.1233 59.9395L49.2561 59.7168L49.6838 55.4688H54.0608V56.4707H50.6038L50.3459 58.791C50.5022 58.7012 50.6995 58.6172 50.9377 58.5391C51.1799 58.4609 51.4573 58.4219 51.7698 58.4219C52.1643 58.4219 52.5178 58.4902 52.8303 58.627C53.1428 58.7598 53.4084 58.9512 53.6272 59.2012C53.8499 59.4512 54.0198 59.752 54.137 60.1035C54.2542 60.4551 54.3127 60.8477 54.3127 61.2812C54.3127 61.6914 54.2561 62.0684 54.1428 62.4121C54.0334 62.7559 53.8674 63.0566 53.6448 63.3145C53.4221 63.5684 53.1409 63.7656 52.801 63.9062C52.4651 64.0469 52.0686 64.1172 51.6116 64.1172C51.2678 64.1172 50.9417 64.0703 50.6331 63.9766C50.3284 63.8789 50.0549 63.7324 49.8127 63.5371C49.5745 63.3379 49.3792 63.0918 49.2268 62.7988C49.0784 62.502 48.9846 62.1543 48.9456 61.7559H49.9768C50.0237 62.0762 50.1174 62.3457 50.2581 62.5645C50.3987 62.7832 50.5823 62.9492 50.8088 63.0625C51.0393 63.1719 51.3069 63.2266 51.6116 63.2266C51.8694 63.2266 52.0979 63.1816 52.2971 63.0918C52.4963 63.002 52.6643 62.873 52.801 62.7051C52.9377 62.5371 53.0413 62.334 53.1116 62.0957C53.1858 61.8574 53.2229 61.5898 53.2229 61.293C53.2229 61.0234 53.1858 60.7734 53.1116 60.543C53.0374 60.3125 52.926 60.1113 52.7776 59.9395C52.6331 59.7676 52.4553 59.6348 52.2444 59.541C52.0334 59.4434 51.7913 59.3945 51.5178 59.3945C51.1545 59.3945 50.8792 59.4434 50.6917 59.541C50.5081 59.6387 50.3186 59.7715 50.1233 59.9395Z" fill="#828282"/>
</svg>
