<svg width="91" height="90" viewBox="0 0 91 90" fill="none" xmlns="http://www.w3.org/2000/svg">
<rect x="1.08594" y="0.75" width="88.5" height="88.5" stroke="#BFBFBF" stroke-width="1.5" stroke-dasharray="4 4"/>
<path d="M48.2869 25.5039C49.0629 25.5039 49.7849 25.9039 50.1959 26.5629L51.7169 28.9999H54.0859C54.9479 28.9999 55.7745 29.3423 56.384 29.9518C56.9935 30.5613 57.3359 31.388 57.3359 32.2499V44.7499C57.3359 45.6119 56.9935 46.4385 56.384 47.048C55.7745 47.6575 54.9479 47.9999 54.0859 47.9999H36.5859C35.724 47.9999 34.8973 47.6575 34.2878 47.048C33.6783 46.4385 33.3359 45.6119 33.3359 44.7499V32.2499C33.3359 31.388 33.6783 30.5613 34.2878 29.9518C34.8973 29.3423 35.724 28.9999 36.5859 28.9999H39.1549L40.5359 26.6229C40.7337 26.2823 41.0175 25.9996 41.3588 25.8031C41.7001 25.6065 42.0871 25.503 42.4809 25.5029H48.2859L48.2869 25.5039ZM48.2869 27.0039H42.4819C42.3699 27.004 42.2592 27.0292 42.1582 27.0776C42.0571 27.1261 41.9682 27.1966 41.8979 27.2839L41.8339 27.3769L40.2339 30.1269C40.1681 30.2405 40.0736 30.3349 39.9599 30.4005C39.8462 30.4661 39.7172 30.5008 39.5859 30.5009H36.5859C36.122 30.5009 35.677 30.6852 35.3489 31.0131C35.0207 31.3411 34.8362 31.786 34.8359 32.2499V44.7499C34.8359 45.7159 35.6199 46.4999 36.5859 46.4999H54.0859C54.5501 46.4999 54.9952 46.3156 55.3234 45.9874C55.6516 45.6592 55.8359 45.2141 55.8359 44.7499V32.2499C55.8359 31.7858 55.6516 31.3407 55.3234 31.0125C54.9952 30.6843 54.5501 30.4999 54.0859 30.4999H51.3009C51.1737 30.4999 51.0485 30.4674 50.9373 30.4057C50.826 30.3439 50.7323 30.2549 50.6649 30.1469L48.9229 27.3559C48.8556 27.248 48.7619 27.1589 48.6506 27.0972C48.5393 27.0354 48.4142 27.003 48.2869 27.0029V27.0039ZM45.3359 32.5019C46.7946 32.5019 48.1936 33.0814 49.225 34.1128C50.2565 35.1443 50.8359 36.5432 50.8359 38.0019C50.8359 39.4606 50.2565 40.8596 49.225 41.891C48.1936 42.9225 46.7946 43.5019 45.3359 43.5019C43.8772 43.5019 42.4783 42.9225 41.4468 41.891C40.4154 40.8596 39.8359 39.4606 39.8359 38.0019C39.8359 36.5432 40.4154 35.1443 41.4468 34.1128C42.4783 33.0814 43.8772 32.5019 45.3359 32.5019ZM45.3359 34.0019C44.2751 34.0019 43.2577 34.4234 42.5075 35.1735C41.7574 35.9236 41.3359 36.9411 41.3359 38.0019C41.3359 39.0628 41.7574 40.0802 42.5075 40.8304C43.2577 41.5805 44.2751 42.0019 45.3359 42.0019C46.3968 42.0019 47.4142 41.5805 48.1644 40.8304C48.9145 40.0802 49.3359 39.0628 49.3359 38.0019C49.3359 36.9411 48.9145 35.9236 48.1644 35.1735C47.4142 34.4234 46.3968 34.0019 45.3359 34.0019Z" fill="black"/>
<path d="M42.4004 59.0547V60.3555C42.4004 61.0547 42.3379 61.6445 42.2129 62.125C42.0879 62.6055 41.9082 62.9922 41.6738 63.2852C41.4395 63.5781 41.1562 63.791 40.8242 63.9238C40.4961 64.0527 40.125 64.1172 39.7109 64.1172C39.3828 64.1172 39.0801 64.0762 38.8027 63.9941C38.5254 63.9121 38.2754 63.7812 38.0527 63.6016C37.834 63.418 37.6465 63.1797 37.4902 62.8867C37.334 62.5938 37.2148 62.2383 37.1328 61.8203C37.0508 61.4023 37.0098 60.9141 37.0098 60.3555V59.0547C37.0098 58.3555 37.0723 57.7695 37.1973 57.2969C37.3262 56.8242 37.5078 56.4453 37.7422 56.1602C37.9766 55.8711 38.2578 55.6641 38.5859 55.5391C38.918 55.4141 39.2891 55.3516 39.6992 55.3516C40.0312 55.3516 40.3359 55.3926 40.6133 55.4746C40.8945 55.5527 41.1445 55.6797 41.3633 55.8555C41.582 56.0273 41.7676 56.2578 41.9199 56.5469C42.0762 56.832 42.1953 57.1816 42.2773 57.5957C42.3594 58.0098 42.4004 58.4961 42.4004 59.0547ZM41.3105 60.5312V58.873C41.3105 58.4902 41.2871 58.1543 41.2402 57.8652C41.1973 57.5723 41.1328 57.3223 41.0469 57.1152C40.9609 56.9082 40.8516 56.7402 40.7188 56.6113C40.5898 56.4824 40.4395 56.3887 40.2676 56.3301C40.0996 56.2676 39.9102 56.2363 39.6992 56.2363C39.4414 56.2363 39.2129 56.2852 39.0137 56.3828C38.8145 56.4766 38.6465 56.627 38.5098 56.834C38.377 57.041 38.2754 57.3125 38.2051 57.6484C38.1348 57.9844 38.0996 58.3926 38.0996 58.873V60.5312C38.0996 60.9141 38.1211 61.252 38.1641 61.5449C38.2109 61.8379 38.2793 62.0918 38.3691 62.3066C38.459 62.5176 38.5684 62.6914 38.6973 62.8281C38.8262 62.9648 38.9746 63.0664 39.1426 63.1328C39.3145 63.1953 39.5039 63.2266 39.7109 63.2266C39.9766 63.2266 40.209 63.1758 40.4082 63.0742C40.6074 62.9727 40.7734 62.8145 40.9062 62.5996C41.043 62.3809 41.1445 62.1016 41.2109 61.7617C41.2773 61.418 41.3105 61.0078 41.3105 60.5312ZM47.6855 55.4688L44.1289 64.7324H43.1973L46.7598 55.4688H47.6855ZM50.123 59.9395L49.2559 59.7168L49.6836 55.4688H54.0605V56.4707H50.6035L50.3457 58.791C50.502 58.7012 50.6992 58.6172 50.9375 58.5391C51.1797 58.4609 51.457 58.4219 51.7695 58.4219C52.1641 58.4219 52.5176 58.4902 52.8301 58.627C53.1426 58.7598 53.4082 58.9512 53.627 59.2012C53.8496 59.4512 54.0195 59.752 54.1367 60.1035C54.2539 60.4551 54.3125 60.8477 54.3125 61.2812C54.3125 61.6914 54.2559 62.0684 54.1426 62.4121C54.0332 62.7559 53.8672 63.0566 53.6445 63.3145C53.4219 63.5684 53.1406 63.7656 52.8008 63.9062C52.4648 64.0469 52.0684 64.1172 51.6113 64.1172C51.2676 64.1172 50.9414 64.0703 50.6328 63.9766C50.3281 63.8789 50.0547 63.7324 49.8125 63.5371C49.5742 63.3379 49.3789 63.0918 49.2266 62.7988C49.0781 62.502 48.9844 62.1543 48.9453 61.7559H49.9766C50.0234 62.0762 50.1172 62.3457 50.2578 62.5645C50.3984 62.7832 50.582 62.9492 50.8086 63.0625C51.0391 63.1719 51.3066 63.2266 51.6113 63.2266C51.8691 63.2266 52.0977 63.1816 52.2969 63.0918C52.4961 63.002 52.6641 62.873 52.8008 62.7051C52.9375 62.5371 53.041 62.334 53.1113 62.0957C53.1855 61.8574 53.2227 61.5898 53.2227 61.293C53.2227 61.0234 53.1855 60.7734 53.1113 60.543C53.0371 60.3125 52.9258 60.1113 52.7773 59.9395C52.6328 59.7676 52.4551 59.6348 52.2441 59.541C52.0332 59.4434 51.791 59.3945 51.5176 59.3945C51.1543 59.3945 50.8789 59.4434 50.6914 59.541C50.5078 59.6387 50.3184 59.7715 50.123 59.9395Z" fill="#828282"/>
</svg>
