<svg width="25" height="24" viewBox="0 0 25 24" fill="none" xmlns="http://www.w3.org/2000/svg">
<path fill-rule="evenodd" clip-rule="evenodd" d="M4.33618 11C4.88847 11 5.33618 11.4477 5.33618 12V20C5.33618 20.2652 5.44154 20.5196 5.62907 20.7071C5.81661 20.8946 6.07097 21 6.33618 21H18.3362C18.6014 21 18.8558 20.8946 19.0433 20.7071C19.2308 20.5196 19.3362 20.2652 19.3362 20V12C19.3362 11.4477 19.7839 11 20.3362 11C20.8885 11 21.3362 11.4477 21.3362 12V20C21.3362 20.7957 21.0201 21.5587 20.4575 22.1213C19.8949 22.6839 19.1318 23 18.3362 23H6.33618C5.54053 23 4.77747 22.6839 4.21486 22.1213C3.65225 21.5587 3.33618 20.7957 3.33618 20V12C3.33618 11.4477 3.7839 11 4.33618 11Z" fill="#414141"/>
<path fill-rule="evenodd" clip-rule="evenodd" d="M11.6291 1.29289C12.0196 0.902361 12.6528 0.902361 13.0433 1.29289L17.0433 5.29289C17.4338 5.68341 17.4338 6.31658 17.0433 6.7071C16.6528 7.09762 16.0196 7.09762 15.6291 6.7071L12.3362 3.41421L9.04329 6.7071C8.65276 7.09762 8.0196 7.09762 7.62907 6.7071C7.23855 6.31658 7.23855 5.68341 7.62907 5.29289L11.6291 1.29289Z" fill="#414141"/>
<path fill-rule="evenodd" clip-rule="evenodd" d="M12.3362 0.999992C12.8885 0.999992 13.3362 1.44771 13.3362 1.99999V15C13.3362 15.5523 12.8885 16 12.3362 16C11.7839 16 11.3362 15.5523 11.3362 15V1.99999C11.3362 1.44771 11.7839 0.999992 12.3362 0.999992Z" fill="#414141"/>
</svg>
