<svg width="24" height="24" viewBox="0 0 24 24" fill="none" xmlns="http://www.w3.org/2000/svg">
<circle cx="12" cy="12" r="12" fill="#9A7CB6"/>
<path d="M9.99977 14.7801L7.68644 12.4667C7.56179 12.3421 7.39272 12.272 7.21644 12.272C7.04015 12.272 6.87109 12.3421 6.74644 12.4667C6.62179 12.5914 6.55176 12.7604 6.55176 12.9367C6.55176 13.024 6.56895 13.1104 6.60235 13.1911C6.63576 13.2717 6.68472 13.345 6.74644 13.4067L9.53311 16.1934C9.79311 16.4534 10.2131 16.4534 10.4731 16.1934L17.5264 9.14005C17.6511 9.0154 17.7211 8.84634 17.7211 8.67005C17.7211 8.49377 17.6511 8.3247 17.5264 8.20005C17.4018 8.0754 17.2327 8.00537 17.0564 8.00537C16.8802 8.00537 16.7111 8.0754 16.5864 8.20005L9.99977 14.7801Z" fill="white"/>
</svg>
