<svg width="25" height="24" viewBox="0 0 25 24" fill="none" xmlns="http://www.w3.org/2000/svg">
<circle cx="12.3359" cy="12" r="12" fill="#9A7CB6"/>
<path d="M10.3357 14.7801L8.02238 12.4667C7.89772 12.3421 7.72866 12.272 7.55238 12.272C7.37609 12.272 7.20703 12.3421 7.08238 12.4667C6.95772 12.5914 6.8877 12.7604 6.8877 12.9367C6.8877 13.024 6.90489 13.1104 6.93829 13.1911C6.97169 13.2717 7.02065 13.345 7.08238 13.4067L9.86904 16.1934C10.129 16.4534 10.549 16.4534 10.809 16.1934L17.8624 9.14005C17.987 9.0154 18.0571 8.84634 18.0571 8.67005C18.0571 8.49377 17.987 8.3247 17.8624 8.20005C17.7377 8.0754 17.5687 8.00537 17.3924 8.00537C17.2161 8.00537 17.047 8.0754 16.9224 8.20005L10.3357 14.7801Z" fill="white"/>
</svg>
