<svg width="24" height="24" viewBox="0 0 24 24" fill="none" xmlns="http://www.w3.org/2000/svg">
<path d="M5.71983 5.72006C5.86045 5.57961 6.05108 5.50072 6.24983 5.50072C6.44858 5.50072 6.6392 5.57961 6.77983 5.72006L11.9998 10.9401L17.2198 5.72006C17.3115 5.62133 17.4281 5.54916 17.5574 5.51115C17.6866 5.47313 17.8237 5.47068 17.9542 5.50406C18.0848 5.53743 18.2039 5.60539 18.299 5.70078C18.3941 5.79617 18.4618 5.91545 18.4948 6.04606C18.5282 6.17643 18.5259 6.31341 18.4881 6.44257C18.4502 6.57173 18.3783 6.68832 18.2798 6.78006L13.0598 12.0001L18.2798 17.2201C18.3786 17.3117 18.4507 17.4283 18.4887 17.5576C18.5268 17.6868 18.5292 17.8239 18.4958 17.9545C18.4625 18.085 18.3945 18.2041 18.2991 18.2992C18.2037 18.3944 18.0844 18.462 17.9538 18.4951C17.8235 18.5285 17.6865 18.5261 17.5573 18.4883C17.4282 18.4505 17.3116 18.3785 17.2198 18.2801L11.9998 13.0601L6.77983 18.2801C6.63757 18.4125 6.44951 18.4846 6.2552 18.4812C6.06088 18.4779 5.87543 18.3993 5.73783 18.2621C5.60059 18.1245 5.52203 17.939 5.51867 17.7447C5.51532 17.5504 5.58742 17.3623 5.71983 17.2201L10.9398 12.0001L5.71983 6.78006C5.57938 6.63943 5.50049 6.44881 5.50049 6.25006C5.50049 6.05131 5.57938 5.86068 5.71983 5.72006Z" fill="black"/>
</svg>
