<svg width="18" height="15" viewBox="0 0 18 15" fill="none" xmlns="http://www.w3.org/2000/svg">
<path fill-rule="evenodd" clip-rule="evenodd" d="M5.002 0.553027C7.6984 0.349837 10.4067 0.363214 13.101 0.593027L14.724 0.731027C15.32 0.781764 15.8815 1.03143 16.3185 1.43988C16.7554 1.84833 17.0423 2.39184 17.133 2.98303L17.235 3.65203C17.5827 5.91989 17.5502 8.22982 17.139 10.487C17.0407 11.0267 16.7561 11.5147 16.3349 11.8661C15.9137 12.2175 15.3825 12.41 14.834 12.41H5.858C5.651 12.41 5.448 12.461 5.266 12.559L1.355 14.661C1.24071 14.7224 1.11245 14.7532 0.982745 14.7502C0.853039 14.7472 0.726325 14.7106 0.614985 14.644C0.503645 14.5774 0.411486 14.483 0.347513 14.3702C0.28354 14.2573 0.249942 14.1298 0.25 14V5.48303C0.250257 4.23991 0.720131 3.04278 1.56552 2.13137C2.41091 1.21997 3.56941 0.661576 4.809 0.568027L5.002 0.553027ZM5 5.50003C4.66848 5.50003 4.35054 5.63172 4.11612 5.86614C3.8817 6.10056 3.75 6.41851 3.75 6.75003C3.75 7.08155 3.8817 7.39949 4.11612 7.63391C4.35054 7.86833 4.66848 8.00003 5 8.00003C5.33152 8.00003 5.64946 7.86833 5.88388 7.63391C6.1183 7.39949 6.25 7.08155 6.25 6.75003C6.25 6.41851 6.1183 6.10056 5.88388 5.86614C5.64946 5.63172 5.33152 5.50003 5 5.50003ZM9 5.50003C8.66848 5.50003 8.35054 5.63172 8.11612 5.86614C7.8817 6.10056 7.75 6.41851 7.75 6.75003C7.75 7.08155 7.8817 7.39949 8.11612 7.63391C8.35054 7.86833 8.66848 8.00003 9 8.00003C9.33152 8.00003 9.64946 7.86833 9.88388 7.63391C10.1183 7.39949 10.25 7.08155 10.25 6.75003C10.25 6.41851 10.1183 6.10056 9.88388 5.86614C9.64946 5.63172 9.33152 5.50003 9 5.50003ZM11.75 6.75003C11.75 6.41851 11.8817 6.10056 12.1161 5.86614C12.3505 5.63172 12.6685 5.50003 13 5.50003C13.3315 5.50003 13.6495 5.63172 13.8839 5.86614C14.1183 6.10056 14.25 6.41851 14.25 6.75003C14.25 7.08155 14.1183 7.39949 13.8839 7.63391C13.6495 7.86833 13.3315 8.00003 13 8.00003C12.6685 8.00003 12.3505 7.86833 12.1161 7.63391C11.8817 7.39949 11.75 7.08155 11.75 6.75003Z" fill="#828282"/>
</svg>
