<svg width="18" height="15" viewBox="0 0 18 15" fill="none" xmlns="http://www.w3.org/2000/svg">
<path fill-rule="evenodd" clip-rule="evenodd" d="M5.002 0.552905C7.6984 0.349715 10.4067 0.363092 13.101 0.592905L14.724 0.730905C15.32 0.781642 15.8815 1.0313 16.3185 1.43976C16.7554 1.84821 17.0423 2.39172 17.133 2.98291L17.235 3.65191C17.5827 5.91977 17.5502 8.2297 17.139 10.4869C17.0407 11.0266 16.7561 11.5146 16.3349 11.866C15.9137 12.2174 15.3825 12.4099 14.834 12.4099H5.858C5.651 12.4099 5.448 12.4609 5.266 12.5589L1.355 14.6609C1.24071 14.7223 1.11245 14.753 0.982745 14.75C0.853039 14.7471 0.726325 14.7105 0.614985 14.6439C0.503645 14.5773 0.411486 14.4829 0.347513 14.3701C0.28354 14.2572 0.249942 14.1296 0.25 13.9999V5.4829C0.250257 4.23979 0.720131 3.04265 1.56552 2.13125C2.41091 1.21984 3.56941 0.661454 4.809 0.567905L5.002 0.552905ZM5 5.49991C4.66848 5.49991 4.35054 5.6316 4.11612 5.86602C3.8817 6.10044 3.75 6.41838 3.75 6.74991C3.75 7.08143 3.8817 7.39937 4.11612 7.63379C4.35054 7.86821 4.66848 7.99991 5 7.99991C5.33152 7.99991 5.64946 7.86821 5.88388 7.63379C6.1183 7.39937 6.25 7.08143 6.25 6.74991C6.25 6.41838 6.1183 6.10044 5.88388 5.86602C5.64946 5.6316 5.33152 5.49991 5 5.49991ZM9 5.49991C8.66848 5.49991 8.35054 5.6316 8.11612 5.86602C7.8817 6.10044 7.75 6.41838 7.75 6.74991C7.75 7.08143 7.8817 7.39937 8.11612 7.63379C8.35054 7.86821 8.66848 7.99991 9 7.99991C9.33152 7.99991 9.64946 7.86821 9.88388 7.63379C10.1183 7.39937 10.25 7.08143 10.25 6.74991C10.25 6.41838 10.1183 6.10044 9.88388 5.86602C9.64946 5.6316 9.33152 5.49991 9 5.49991ZM11.75 6.74991C11.75 6.41838 11.8817 6.10044 12.1161 5.86602C12.3505 5.6316 12.6685 5.49991 13 5.49991C13.3315 5.49991 13.6495 5.6316 13.8839 5.86602C14.1183 6.10044 14.25 6.41838 14.25 6.74991C14.25 7.08143 14.1183 7.39937 13.8839 7.63379C13.6495 7.86821 13.3315 7.99991 13 7.99991C12.6685 7.99991 12.3505 7.86821 12.1161 7.63379C11.8817 7.39937 11.75 7.08143 11.75 6.74991Z" fill="#9A7CB6"/>
</svg>
