<svg width="32" height="32" viewBox="0 0 32 32" fill="none" xmlns="http://www.w3.org/2000/svg">
<g filter="url(#filter0_d_2309_4696)">
<circle cx="16" cy="16" r="12" fill="white"/>
</g>
<path d="M16.75 10.75C16.75 10.5511 16.671 10.3603 16.5303 10.2197C16.3897 10.079 16.1989 10 16 10C15.8011 10 15.6103 10.079 15.4697 10.2197C15.329 10.3603 15.25 10.5511 15.25 10.75V15.25H10.75C10.5511 15.25 10.3603 15.329 10.2197 15.4697C10.079 15.6103 10 15.8011 10 16C10 16.1989 10.079 16.3897 10.2197 16.5303C10.3603 16.671 10.5511 16.75 10.75 16.75H15.25V21.25C15.25 21.4489 15.329 21.6397 15.4697 21.7803C15.6103 21.921 15.8011 22 16 22C16.1989 22 16.3897 21.921 16.5303 21.7803C16.671 21.6397 16.75 21.4489 16.75 21.25V16.75H21.25C21.4489 16.75 21.6397 16.671 21.7803 16.5303C21.921 16.3897 22 16.1989 22 16C22 15.8011 21.921 15.6103 21.7803 15.4697C21.6397 15.329 21.4489 15.25 21.25 15.25H16.75V10.75Z" fill="#414141"/>
<defs>
<filter id="filter0_d_2309_4696" x="0" y="0" width="32" height="32" filterUnits="userSpaceOnUse" color-interpolation-filters="sRGB">
<feFlood flood-opacity="0" result="BackgroundImageFix"/>
<feColorMatrix in="SourceAlpha" type="matrix" values="0 0 0 0 0 0 0 0 0 0 0 0 0 0 0 0 0 0 127 0" result="hardAlpha"/>
<feOffset/>
<feGaussianBlur stdDeviation="2"/>
<feComposite in2="hardAlpha" operator="out"/>
<feColorMatrix type="matrix" values="0 0 0 0 0.4 0 0 0 0 0.4 0 0 0 0 0.4 0 0 0 0.25 0"/>
<feBlend mode="normal" in2="BackgroundImageFix" result="effect1_dropShadow_2309_4696"/>
<feBlend mode="normal" in="SourceGraphic" in2="effect1_dropShadow_2309_4696" result="shape"/>
</filter>
</defs>
</svg>
