<svg width="67" height="68" viewBox="0 0 67 68" fill="none" xmlns="http://www.w3.org/2000/svg">
<ellipse cx="33.5" cy="33.7815" rx="33.5" ry="33.6763" fill="white"/>
<path fill-rule="evenodd" clip-rule="evenodd" d="M57.9365 56.8175C63.5575 50.7943 67 42.6921 67 33.7815C67 15.1826 52.0015 0.105225 33.5 0.105225C14.9985 0.105225 0 15.1826 0 33.7815C0 42.6921 3.44253 50.7943 9.06352 56.8175C10.9126 51.4333 17.0138 43.6035 33.5 43.6035C49.9862 43.6035 56.0874 51.4333 57.9365 56.8175ZM42.383 35.6952C40.0271 38.0635 36.8318 39.394 33.5 39.394C30.1682 39.394 26.9729 38.0635 24.617 35.6952C22.261 33.3268 20.9375 30.1147 20.9375 26.7654C20.9375 23.4161 22.261 20.2039 24.617 17.8356C26.9729 15.4673 30.1682 14.1368 33.5 14.1368C36.8318 14.1368 40.0271 15.4673 42.383 17.8356C44.739 20.2039 46.0625 23.4161 46.0625 26.7654C46.0625 30.1147 44.739 33.3268 42.383 35.6952Z" fill="#D9D9D9"/>
</svg>
