<svg width="21" height="20" viewBox="0 0 21 20" fill="none" xmlns="http://www.w3.org/2000/svg">
<path d="M10.4257 3.05938L10.9259 3.50742L11.4263 3.05951C12.4188 2.17099 13.714 1.69639 15.0457 1.73323C16.3773 1.77006 17.6443 2.31554 18.5862 3.25757L18.5862 3.25764C19.5274 4.19866 20.073 5.46404 20.1111 6.7944C20.149 8.11792 19.6818 9.40601 18.8049 10.3973L10.9241 18.2892L3.04518 10.3973C2.16711 9.40541 1.69946 8.11617 1.73778 6.79152C1.77629 5.46009 2.32304 4.19393 3.26579 3.25297C4.20853 2.312 5.47572 1.76764 6.80722 1.73164C8.13871 1.69564 9.43347 2.17073 10.4257 3.05938Z" stroke="#BFBFBF" stroke-width="1.5"/>
</svg>
