<svg width="24" height="24" viewBox="0 0 24 24" fill="none" xmlns="http://www.w3.org/2000/svg">
<path d="M11.4254 5.05938L11.9257 5.50742L12.426 5.05951C13.4186 4.17099 14.7138 3.69639 16.0454 3.73323C17.3771 3.77006 18.644 4.31554 19.5859 5.25757L19.586 5.25764C20.5272 6.19866 21.0727 7.46404 21.1108 8.7944C21.1488 10.1179 20.6816 11.406 19.8046 12.3973L11.9239 20.2892L4.04494 12.3973C3.16687 11.4054 2.69922 10.1162 2.73753 8.79152C2.77605 7.46009 3.3228 6.19393 4.26554 5.25297C5.20828 4.312 6.47548 3.76764 7.80697 3.73164C9.13847 3.69564 10.4332 4.17073 11.4254 5.05938Z" stroke="#BFBFBF" stroke-width="1.5"/>
</svg>
