<svg width="20" height="20" viewBox="0 0 20 20" fill="none" xmlns="http://www.w3.org/2000/svg">
<path fill-rule="evenodd" clip-rule="evenodd" d="M8.3335 10.0002C8.3335 9.07969 9.07969 8.3335 10.0002 8.3335C10.9206 8.3335 11.6668 9.07969 11.6668 10.0002C11.6668 10.9206 10.9206 11.6668 10.0002 11.6668C9.07969 11.6668 8.3335 10.9206 8.3335 10.0002Z" fill="#414141"/>
<path fill-rule="evenodd" clip-rule="evenodd" d="M8.3335 4.16667C8.3335 3.24619 9.07969 2.5 10.0002 2.5C10.9206 2.5 11.6668 3.24619 11.6668 4.16667C11.6668 5.08714 10.9206 5.83333 10.0002 5.83333C9.07969 5.83333 8.3335 5.08714 8.3335 4.16667Z" fill="#414141"/>
<path fill-rule="evenodd" clip-rule="evenodd" d="M8.3335 15.8332C8.3335 14.9127 9.07969 14.1665 10.0002 14.1665C10.9206 14.1665 11.6668 14.9127 11.6668 15.8332C11.6668 16.7536 10.9206 17.4998 10.0002 17.4998C9.07969 17.4998 8.3335 16.7536 8.3335 15.8332Z" fill="#414141"/>
</svg>
