<svg width="36" height="36" viewBox="0 0 36 36" fill="none" xmlns="http://www.w3.org/2000/svg">
<circle cx="18" cy="18" r="18" fill="#9A7CB6"/>
<path d="M25.3125 12.5V21.5C25.3125 21.7984 25.194 22.0845 24.983 22.2955C24.772 22.5065 24.4859 22.625 24.1875 22.625H14.8008L12.5452 24.6015C12.5425 24.6044 12.5394 24.607 12.536 24.6092C12.334 24.7808 12.0776 24.875 11.8125 24.875C11.6475 24.8747 11.4845 24.8382 11.3351 24.7681C11.1408 24.6786 10.9763 24.5349 10.8615 24.3544C10.7466 24.1738 10.6862 23.964 10.6875 23.75V12.5C10.6875 12.2016 10.806 11.9155 11.017 11.7045C11.228 11.4935 11.5142 11.375 11.8125 11.375H24.1875C24.4859 11.375 24.772 11.4935 24.983 11.7045C25.194 11.9155 25.3125 12.2016 25.3125 12.5Z" fill="white"/>
</svg>
