<svg width="88" height="88" viewBox="0 0 88 88" fill="none" xmlns="http://www.w3.org/2000/svg">
<circle cx="44" cy="44" r="44" fill="white"/>
<path fill-rule="evenodd" clip-rule="evenodd" d="M76.0956 74.0979C83.4784 66.2282 88 55.6421 88 44C88 19.6995 68.3005 0 44 0C19.6995 0 0 19.6995 0 44C0 55.6421 4.52155 66.2282 11.9044 74.0979C14.3331 67.0631 22.3467 56.8333 44 56.8333C65.6533 56.8333 73.6669 67.0631 76.0956 74.0979ZM55.6673 46.5005C52.5729 49.5949 48.3761 51.3333 44 51.3333C39.6239 51.3333 35.4271 49.5949 32.3327 46.5005C29.2384 43.4062 27.5 39.2093 27.5 34.8333C27.5 30.4572 29.2384 26.2603 32.3327 23.166C35.4271 20.0716 39.6239 18.3333 44 18.3333C48.3761 18.3333 52.5729 20.0716 55.6673 23.166C58.7616 26.2603 60.5 30.4572 60.5 34.8333C60.5 39.2093 58.7616 43.4062 55.6673 46.5005Z" fill="#D9D9D9"/>
</svg>
