<svg width="92" height="92" viewBox="0 0 92 92" fill="none" xmlns="http://www.w3.org/2000/svg">
<circle cx="44" cy="44" r="44" fill="white"/>
<path fill-rule="evenodd" clip-rule="evenodd" d="M76.0956 74.0979C83.4784 66.2282 88 55.6421 88 44C88 19.6995 68.3005 0 44 0C19.6995 0 0 19.6995 0 44C0 55.6421 4.52155 66.2282 11.9044 74.0979C14.3331 67.0631 22.3467 56.8333 44 56.8333C65.6533 56.8333 73.6669 67.0631 76.0956 74.0979ZM55.6673 46.5005C52.5729 49.5949 48.3761 51.3333 44 51.3333C39.6239 51.3333 35.4271 49.5949 32.3327 46.5005C29.2384 43.4062 27.5 39.2093 27.5 34.8333C27.5 30.4572 29.2384 26.2603 32.3327 23.166C35.4271 20.0716 39.6239 18.3333 44 18.3333C48.3761 18.3333 52.5729 20.0716 55.6673 23.166C58.7616 26.2603 60.5 30.4572 60.5 34.8333C60.5 39.2093 58.7616 43.4062 55.6673 46.5005Z" fill="#D9D9D9"/>
<g filter="url(#filter0_d_1988_3537)">
<circle cx="76" cy="76" r="12" fill="white"/>
</g>
<path d="M76.75 70.75C76.75 70.5511 76.671 70.3603 76.5303 70.2197C76.3897 70.079 76.1989 70 76 70C75.8011 70 75.6103 70.079 75.4697 70.2197C75.329 70.3603 75.25 70.5511 75.25 70.75V75.25H70.75C70.5511 75.25 70.3603 75.329 70.2197 75.4697C70.079 75.6103 70 75.8011 70 76C70 76.1989 70.079 76.3897 70.2197 76.5303C70.3603 76.671 70.5511 76.75 70.75 76.75H75.25V81.25C75.25 81.4489 75.329 81.6397 75.4697 81.7803C75.6103 81.921 75.8011 82 76 82C76.1989 82 76.3897 81.921 76.5303 81.7803C76.671 81.6397 76.75 81.4489 76.75 81.25V76.75H81.25C81.4489 76.75 81.6397 76.671 81.7803 76.5303C81.921 76.3897 82 76.1989 82 76C82 75.8011 81.921 75.6103 81.7803 75.4697C81.6397 75.329 81.4489 75.25 81.25 75.25H76.75V70.75Z" fill="#414141"/>
<defs>
<filter id="filter0_d_1988_3537" x="60" y="60" width="32" height="32" filterUnits="userSpaceOnUse" color-interpolation-filters="sRGB">
<feFlood flood-opacity="0" result="BackgroundImageFix"/>
<feColorMatrix in="SourceAlpha" type="matrix" values="0 0 0 0 0 0 0 0 0 0 0 0 0 0 0 0 0 0 127 0" result="hardAlpha"/>
<feOffset/>
<feGaussianBlur stdDeviation="2"/>
<feComposite in2="hardAlpha" operator="out"/>
<feColorMatrix type="matrix" values="0 0 0 0 0.4 0 0 0 0 0.4 0 0 0 0 0.4 0 0 0 0.25 0"/>
<feBlend mode="normal" in2="BackgroundImageFix" result="effect1_dropShadow_1988_3537"/>
<feBlend mode="normal" in="SourceGraphic" in2="effect1_dropShadow_1988_3537" result="shape"/>
</filter>
</defs>
</svg>
